<svg width="191" height="23" viewBox="0 0 191 23" fill="none" xmlns="http://www.w3.org/2000/svg">
<path d="M0 22.4589V20.3676C2.7501 20.3676 2.67599 20.1235 2.67599 15.8351V7.12417C2.67599 2.83989 2.7501 2.59579 0 2.59579V0.524845H13.5858C20.424 0.524845 22.6142 1.81461 22.6142 5.92394C22.6142 9.899 20.3211 10.5581 16.2289 10.6639V11.8153C20.601 11.917 23.1041 12.629 23.1041 16.6977C23.1041 21.1732 20.7781 22.4833 13.8658 22.4833L0 22.4589ZM9.72826 2.59579V10.4686H10.8563C14.4915 10.4686 15.6196 9.70369 15.6196 6.60339C15.6196 3.2549 14.4174 2.59579 10.6793 2.59579H9.72826ZM9.72826 12.4907V20.3676H10.5064C14.2116 20.3676 16.0395 19.5539 16.0395 16.36C16.0395 13.0481 14.4174 12.4907 10.9304 12.4907H9.72826Z" fill="#DD5E1F"/>
<path d="M30.778 4.61382C30.778 3.08401 29.827 2.5795 27.361 2.5795V0.524845H40.4034L45.2696 16.8686C45.9406 19.1673 46.5046 20.0747 48.3037 20.3879V22.4792H35.2325V20.3879C37.3857 20.3879 38.6907 19.1307 38.0567 16.7953L37.3857 14.2891C36.2906 14.2524 35.1996 14.2891 34.0922 14.2891C33.1082 14.2891 32.1202 14.289 31.1321 14.3216C30.8989 15.4118 30.7612 16.5199 30.7204 17.6335C30.7204 19.2365 31.3915 19.7248 32.9065 20.3879V22.4792H23.9728V20.3879C26.587 19.5661 30.778 7.78736 30.778 4.61382ZM36.8422 12.3239L34.2692 2.91721H33.7052C32.7624 7.03467 32.0131 10.0495 31.5561 12.3239H36.8422Z" fill="#DD5E1F"/>
<path d="M63.1123 18.4269C63.0752 17.4504 63.0052 16.6488 62.9723 15.4649C62.8982 13.0603 62.2312 12.5029 58.9171 12.5395H58.386V15.8473C58.386 20.1357 58.3161 20.3798 61.3502 20.3798V22.4711H48.6537V20.3798C51.3708 20.3798 51.3338 20.0299 51.3338 14.106V8.86555C51.3338 2.94162 51.3708 2.59579 48.6537 2.59579V0.524845H63.2522C69.3864 0.524845 71.4861 1.81461 71.4861 5.92394C71.4861 10.3994 68.703 10.9446 63.9768 11.0138V11.917C68.279 11.9537 69.7405 13.0685 69.7405 15.8189V16.657C69.7405 18.6913 69.8105 19.619 70.5639 19.619C71.3173 19.619 71.412 18.6791 71.412 17.4219C71.412 16.5512 71.3749 15.5422 71.3049 14.4274H73.4539C73.5239 15.5747 73.491 16.5512 73.491 17.4911C73.491 21.5597 72.47 22.7803 68.8018 22.7803C64.9114 22.8047 63.2893 21.6207 63.1123 18.4269ZM58.386 2.60799V10.5174H59.8311C62.9352 10.5174 64.4873 9.47179 64.4873 6.22908C64.4873 3.05962 63.7833 2.60799 59.8311 2.60799H58.386Z" fill="#DD5E1F"/>
<path d="M74.3432 22.4589V20.3676C77.0933 20.3676 77.0233 20.1235 77.0233 15.8351V7.12417C77.0233 2.83989 77.0933 2.59579 74.3432 2.59579V0.524845H87.929C94.7672 0.524845 96.9533 1.81461 96.9533 5.92394C96.9533 9.899 94.6643 10.5581 90.5721 10.6639V11.8153C94.9442 11.917 97.4473 12.629 97.4473 16.6977C97.4473 21.1732 95.1212 22.4833 88.209 22.4833L74.3432 22.4589ZM84.0756 2.59579V10.4686H85.2036C88.8347 10.4686 89.9669 9.70369 89.9669 6.60339C89.9669 3.2549 88.7647 2.59579 85.0266 2.59579H84.0756ZM84.0756 12.4907V20.3676H84.8537C88.5589 20.3676 90.3868 19.5539 90.3868 16.36C90.3868 13.0481 88.7647 12.4907 85.2736 12.4907H84.0756Z" fill="#DD5E1F"/>
<path d="M105.105 4.61382C105.105 3.08401 104.154 2.5795 101.684 2.5795V0.524845H114.73L119.596 16.8686C120.267 19.1673 120.831 20.0747 122.63 20.3879V22.4792H109.547V20.3879C111.7 20.3879 113.001 19.1307 112.367 16.7953L111.7 14.2891C110.605 14.2524 109.514 14.2891 108.407 14.2891C107.418 14.2891 106.435 14.289 105.446 14.3216C105.213 15.4118 105.076 16.5199 105.035 17.6335C105.035 19.2365 105.706 19.7248 107.221 20.3879V22.4792H98.2995V20.3879C100.91 19.5661 105.105 7.78736 105.105 4.61382ZM111.169 12.3239L108.596 2.91721H108.032C107.081 7.02653 106.34 10.0577 105.879 12.3239H111.169Z" fill="#DD5E1F"/>
<path d="M142.655 0.524845L142.482 9.68743H140.366C139.201 6.09889 137.332 2.30284 134.265 2.30284C131.655 2.30284 130.033 3.55599 130.033 11.2905C130.033 17.7026 131.679 20.3147 135.146 20.3147C138.744 20.3147 140.498 18.5733 140.436 13.7317H142.585C142.585 19.1999 140.823 23 133.491 23C127.847 23 122.63 20.8029 122.63 11.4329C122.63 3.20608 126.686 0 132.713 0C136.064 0 137.863 1.49726 139.238 1.49726C139.532 1.51102 139.821 1.42062 140.054 1.24235C140.286 1.06407 140.447 0.809634 140.506 0.524845H142.655Z" fill="#DD5E1F"/>
<path d="M155.932 22.9797C147.822 22.9797 144.508 19.1796 144.508 11.5142C144.508 3.84893 147.822 0.0162656 155.932 0.0162656C164.042 0.0162656 167.385 4.05642 167.385 11.5102C167.385 18.9639 164.092 22.9797 155.932 22.9797ZM155.932 2.07092C153.215 2.07092 151.91 3.6048 151.91 11.4817C151.91 19.2853 153.215 20.8884 155.932 20.8884C158.649 20.8884 159.987 19.3911 159.987 11.4817C159.987 3.57225 158.682 2.07092 155.932 2.07092Z" fill="#DD5E1F"/>
<path d="M173.491 4.61382C173.491 3.08401 172.54 2.5795 170.07 2.5795V0.524845H183.116L187.97 16.8482C188.641 19.147 189.205 20.0543 191 20.3676V22.4589H177.933V20.3676C180.082 20.3676 181.387 19.1104 180.753 16.775L180.082 14.2687C178.991 14.2321 177.896 14.2687 176.788 14.2687C175.8 14.2687 174.812 14.2687 173.824 14.3012C173.593 15.3917 173.455 16.4997 173.413 17.6131C173.413 19.2162 174.08 19.7044 175.599 20.3676V22.4589H166.686V20.3676C169.296 19.5661 173.491 7.78736 173.491 4.61382ZM179.555 12.3239L176.982 2.91721H176.418C175.463 7.02653 174.726 10.0577 174.265 12.3239H179.555Z" fill="#DD5E1F"/>
</svg>
